<?xml version="1.0" encoding="UTF-8" standalone="no"?>
<!-- Created with Inkscape (http://www.inkscape.org/) -->

<svg
   width="116.56007mm"
   height="107.34624mm"
   viewBox="0 0 116.56007 107.34624"
   version="1.1"
   id="svg1"
   xml:space="preserve"
   inkscape:version="1.4.4 (dcaf3e7, 2026-05-05)"
   sodipodi:docname="circuit_heart3.svg"
   xmlns:inkscape="http://www.inkscape.org/namespaces/inkscape"
   xmlns:sodipodi="http://sodipodi.sourceforge.net/DTD/sodipodi-0.dtd"
   xmlns="http://www.w3.org/2000/svg"
   xmlns:svg="http://www.w3.org/2000/svg"><sodipodi:namedview
     id="namedview1"
     pagecolor="#505050"
     bordercolor="#eeeeee"
     borderopacity="1"
     inkscape:showpageshadow="0"
     inkscape:pageopacity="0"
     inkscape:pagecheckerboard="0"
     inkscape:deskcolor="#505050"
     inkscape:document-units="mm"
     inkscape:zoom="0.51981271"
     inkscape:cx="-21.161468"
     inkscape:cy="353.01176"
     inkscape:window-width="2560"
     inkscape:window-height="1369"
     inkscape:window-x="-8"
     inkscape:window-y="-8"
     inkscape:window-maximized="1"
     inkscape:current-layer="layer1" /><defs
     id="defs1" /><g
     inkscape:label="Layer 1"
     inkscape:groupmode="layer"
     id="layer1"
     transform="translate(-47.58398,-78.339395)"><path
       style="fill:#48c0f0;fill-opacity:1;stroke-width:0.390119"
       d="m 105.14138,185.37689 c -0.38038,-0.16229 -0.94106,-0.47456 -1.24593,-0.69393 -1.09427,-0.78738 -7.491371,-6.55707 -7.656934,-6.90598 -0.146316,-0.30833 -0.159835,-2.12977 -0.13532,-18.23242 l 0.02723,-17.88985 0.2778,-0.78409 c 0.597731,-1.6871 0.39354,-1.45991 9.604854,-10.68682 l 8.56627,-8.58077 -0.16701,-0.97976 c -0.10042,-0.58913 -0.167,-1.56848 -0.167,-2.45639 0,-1.68906 0.26615,-3.0621 0.89875,-4.63652 2.12734,-5.29454 7.48196,-8.54947 13.09063,-7.95745 5.54171,0.58495 9.84103,4.26615 11.15888,9.55455 0.3531,1.41694 0.44566,3.71886 0.20607,5.12446 -0.79269,4.65042 -3.97188,8.44763 -8.36321,9.98898 -2.57158,0.90262 -5.81595,0.88172 -8.47482,-0.0546 -0.56811,-0.20007 -1.13383,-0.3723 -1.25714,-0.38276 -0.32726,-0.0277 -13.28737,12.89198 -13.59665,13.55428 l -0.21691,0.46448 -0.0516,20.73032 -0.0516,20.73032 -0.24368,0.19731 c -0.38223,0.3095 -1.34036,0.26454 -2.20266,-0.10336 z M 128.68021,123.191 c 1.26584,-0.44225 2.2552,-1.24625 2.88022,-2.3406 0.82495,-1.4444 0.8715,-3.46529 0.11559,-5.0173 -0.34817,-0.71484 -1.45519,-1.79731 -2.24667,-2.19684 -2.58116,-1.30297 -5.71361,-0.33253 -7.09009,2.19653 -0.73256,1.34596 -0.75491,3.29435 -0.0544,4.74147 0.58113,1.20045 1.79717,2.22204 3.15933,2.65414 0.92947,0.29485 2.33141,0.27865 3.23599,-0.0374 z m -17.27222,59.15775 c -0.0347,-0.24127 -0.0492,-3.96877 -0.0322,-8.28332 0.0266,-6.74232 0.0527,-7.88323 0.18579,-8.11932 0.16522,-0.29312 1.26276,-1.41476 13.41183,-13.70642 16.18091,-16.37081 19.47952,-19.75356 20.78946,-21.31974 3.87142,-4.62874 5.87813,-10.11088 5.87525,-16.05054 -0.003,-6.71999 -2.47239,-12.72988 -7.06484,-17.195965 -3.31589,-3.224646 -7.62645,-5.370913 -12.21309,-6.081007 -1.49829,-0.231962 -3.9136,-0.305745 -5.36738,-0.163962 -4.20511,0.410111 -8.49699,2.22539 -11.81856,4.998731 -0.48255,0.402903 -2.54951,2.3879 -4.59324,4.411103 -2.04374,2.02321 -3.82602,3.73655 -3.96063,3.80743 -0.3437,0.18097 -0.85191,0.16025 -1.26127,-0.0514 -0.19176,-0.0992 -1.90542,-1.7226 -3.80813,-3.60763 -1.902682,-1.885028 -3.714907,-3.655148 -4.027144,-3.9336 -2.820284,-2.515119 -6.777882,-4.52134 -10.370128,-5.256918 -4.711767,-0.964821 -9.49044,-0.32881 -13.937916,1.855049 -2.503447,1.229276 -4.151737,2.415416 -6.078867,4.374469 -1.900591,1.932074 -3.122568,3.65556 -4.29475,6.05736 -1.434645,2.93958 -2.140102,5.45178 -2.474062,8.81034 -0.630594,6.34176 1.555963,13.02541 5.931162,18.12978 1.594417,1.86015 8.031773,8.42421 15.285193,15.58605 4.082237,4.0307 8.149531,8.04849 9.038431,8.92843 1.54112,1.52559 1.621453,1.6253 1.729696,2.14688 0.152994,0.7372 0.157481,15.80558 0.0049,16.35511 -0.05912,0.21288 -0.130843,0.38707 -0.159378,0.38707 -0.31474,0 -2.395061,-2.01313 -12.893368,-12.47693 -6.699477,-6.67743 -14.472691,-14.39353 -17.273839,-17.14689 -2.801147,-2.75336 -5.542557,-5.54042 -6.092021,-6.19347 -4.748089,-5.64316 -7.59742,-12.7107 -8.278905,-20.53518 -0.152658,-1.75274 -0.06303,-6.28826 0.159069,-8.04953 0.724659,-5.74663 2.837394,-11.445245 5.91483,-15.953889 1.620256,-2.37378 3.11783,-4.122224 5.340804,-6.235482 4.298913,-4.086736 9.778404,-7.067119 15.586169,-8.477567 3.369335,-0.818262 5.810192,-1.07971 9.321157,-0.99842 5.078759,0.117591 9.536309,1.213112 13.954699,3.429614 2.657358,1.333074 5.025868,2.928485 7.315248,4.92751 0.30883,0.269659 0.64215,0.49029 0.74072,0.49029 0.0986,0 0.40487,-0.199666 0.68067,-0.443701 3.346,-2.960648 7.18457,-5.198707 11.49426,-6.701681 2.16477,-0.754946 5.3199,-1.412738 7.84877,-1.636335 1.98033,-0.175097 6.05252,-0.06912 7.78889,0.202705 4.07606,0.638098 6.81858,1.49233 10.32189,3.215039 3.54965,1.745501 6.18998,3.615807 9.15371,6.484147 7.04847,6.821599 10.8316,16.01136 10.86295,26.38765 0.0134,4.42615 -0.55804,8.15731 -1.86165,12.15608 -1.72417,5.28884 -4.43523,9.73055 -8.86216,14.51949 -2.25217,2.43634 -40.93267,41.04252 -41.31138,41.232 -0.52012,0.26023 -0.63011,0.21731 -0.70069,-0.2734 z"
       id="path1" /></g></svg>
